<?xml version="1.0" encoding="iso-8859-1"?>
<!-- Generator: Adobe Illustrator 19.0.0, SVG Export Plug-In . SVG Version: 6.00 Build 0)  -->
<svg version="1.1" id="Layer_1" xmlns="http://www.w3.org/2000/svg" xmlns:xlink="http://www.w3.org/1999/xlink" x="0px" y="0px"
	 viewBox="0 0 508 508" style="enable-background:new 0 0 508 508;" xml:space="preserve">
<circle style="fill:#FD8469;" cx="254" cy="254" r="254"/>
<g>
	<polygon style="fill:#FFD05B;" points="382.4,166.4 382,123.2 338.8,123.6 322,84.4 282.8,101.2 252,71.2 222,102 182,86 
		166.4,125.6 123.2,126 123.6,169.2 84.4,186 94.4,209.6 412.4,206 422,182 	"/>
	<polygon style="fill:#FFD05B;" points="384.4,338.8 384.8,382 342,382.4 326,422 286,406 256,436.8 225.2,406.8 186,423.6 
		169.2,384.4 126,384.8 125.6,341.6 86,326 95.6,302 413.6,298.4 423.6,322 	"/>
</g>
<path style="fill:#F9B54C;" d="M357.2,299.2c-17.2,39.2-56,66.8-102,67.6c-45.6,0.4-85.6-26.4-103.6-65.6h-18.8
	c19.2,48.8,66.8,83.2,122.4,82.4s102.4-36,120.8-85.2L357.2,299.2z M252.8,141.2c45.6-0.4,85.6,26.4,103.6,65.6h18.8
	c-19.2-48.8-66.8-83.2-122.4-82.4c-55.6,0.8-102.4,36-120.4,85.2h18.8C168,169.6,206.8,142,252.8,141.2z"/>
<path style="fill:#FFFFFF;" d="M423.6,298.4l-338,3.6c-25.6,0.4-46.4-20-46.8-45.6l0,0c-0.4-25.6,20-46.4,45.6-46.8l338-3.6
	c25.6-0.4,46.4,20,46.8,45.6l0,0C469.2,277.2,448.8,298,423.6,298.4z"/>
<g>
	<path style="fill:#54C0EB;" d="M96,230.4c-0.8-1.6-2.4-2.8-4.4-2.8s-3.6,1.2-4.4,3.2l-18,46.8c-0.4,0.4-0.4,1.2-0.4,1.6
		c0,2.4,2,4.8,4.8,4.4c2,0,3.6-1.2,4.4-3.2l3.6-8.8l21.6-0.4l3.6,8.8c0.8,2,2.4,2.8,4.4,2.8c2.8,0,4.8-2.4,4.4-4.8
		c0-0.4,0-1.2-0.4-1.6L96,230.4z M84.8,262.4l6.8-18l7.2,17.6L84.8,262.4z"/>
	<path style="fill:#54C0EB;" d="M274.8,225.6c-14.8,0-26.8,12.8-26.4,28.4c0,15.6,12.4,28,27.2,27.6c14.8,0,26.8-12.8,26.4-28.4
		C302,237.6,289.6,225.2,274.8,225.6z M275.6,272c-9.6,0-17.6-8-17.6-18.4s7.6-18.8,17.2-18.8s17.6,8,17.6,18.4
		C292.8,263.6,285.2,272,275.6,272z"/>
	<path style="fill:#54C0EB;" d="M344.4,224.8c-2,0-3.6,1.2-4.4,3.2l-14,36l-14.8-35.6c-0.8-2-2.4-2.8-4.4-2.8
		c-2.8,0-4.8,2.4-4.4,4.8c0,0.4,0,1.2,0.4,1.6l19.2,46c0.8,1.6,2.4,2.8,4.4,2.8s3.6-1.2,4.4-3.2l18-46.8c0.4-0.4,0.4-1.2,0.4-1.6
		C349.2,226.8,347.2,224.8,344.4,224.8z"/>
	<path style="fill:#54C0EB;" d="M386,233.6c2.8,0,4.8-2,4.8-4.8c0-2.4-2-4.8-4.8-4.4l-25.6,0.4c-2.8,0-4.8,2-4.8,4.8l0.4,46.8
		c0,2.4,2,4.8,4.8,4.4l25.6-0.4c2.8,0,4.8-2,4.8-4.8s-2-4.8-4.8-4.8l-20.8,0.4v-14H382c2.4,0,4.8-2,4.4-4.8c0-2.4-2-4.8-4.8-4.4
		h-16.4v-14L386,233.6z"/>
	<path style="fill:#54C0EB;" d="M233.2,261.2c6-3.2,9.6-9.2,9.6-16.4c0-10.4-8.4-18.8-18.8-18.8l0,0h-12.8c-2.4,0-4.8,2-4.8,4.8V278
		c0,2.8,2,4.8,4.8,4.8s4.8-2,4.8-4.8v-14h7.6l10.8,16.8c1.2,2.4,4.4,2.8,6.4,1.6c2.4-1.6,2.8-4.4,1.6-6.4L233.2,261.2z M216,254.4
		v-18.8h8c5.2,0,9.6,4.4,9.6,9.6s-4.4,9.6-9.6,9.6h-8V254.4z"/>
	<path style="fill:#54C0EB;" d="M138.8,226H126c-2.4,0-4.8,2-4.8,4.8v46.8c0,2.4,2,4.8,4.8,4.8s4.8-2,4.8-4.8v-14h8l0,0
		c10.4,0,18.8-8.4,18.8-18.8l0,0C157.6,234.4,149.2,226,138.8,226L138.8,226z M138.8,254h-8v-18.8h8c5.2,0,9.2,4,9.2,9.2
		C148.4,250,144,254,138.8,254z"/>
	<path style="fill:#54C0EB;" d="M180.8,226H168c-2.4,0-4.8,2-4.8,4.8v46.8c0,2.4,2,4.8,4.8,4.8s4.8-2,4.8-4.8v-14h8l0,0
		c10.4,0,18.8-8.4,18.8-18.8l0,0C199.6,234.4,191.2,226,180.8,226L180.8,226z M180.8,254h-8v-18.8h8c5.2,0,9.2,4,9.2,9.2
		C190,250,186,254,180.8,254z"/>
	<path style="fill:#54C0EB;" d="M414,280.4h-12.4c-2.4,0-4.8-2-4.8-4.8v-46.4c0-2.4,2-4.8,4.8-4.8H414c15.6,0,28,12.4,28,28
		S429.6,280.4,414,280.4z M406.4,271.2h7.6c10.4,0,18.8-8.4,18.8-18.8c0-10.4-8.4-18.8-18.8-18.8h-7.6V271.2z"/>
</g>
<g>
</g>
<g>
</g>
<g>
</g>
<g>
</g>
<g>
</g>
<g>
</g>
<g>
</g>
<g>
</g>
<g>
</g>
<g>
</g>
<g>
</g>
<g>
</g>
<g>
</g>
<g>
</g>
<g>
</g>
</svg>
