<?xml version="1.0" encoding="iso-8859-1"?>
<!-- Generator: Adobe Illustrator 19.0.0, SVG Export Plug-In . SVG Version: 6.00 Build 0)  -->
<svg version="1.1" id="Capa_1" xmlns="http://www.w3.org/2000/svg" xmlns:xlink="http://www.w3.org/1999/xlink" x="0px" y="0px"
	 viewBox="0 0 511.999 511.999" style="enable-background:new 0 0 511.999 511.999;" xml:space="preserve">
<path style="fill:#FEB756;" d="M256,258.031L256,258.031c-8.837,0-16,7.163-16,16l0,0c0,8.837,7.163,16,16,16l0,0
	c8.837,0,16-7.163,16-16l0,0C272,265.193,264.837,258.031,256,258.031z"/>
<g>
	<path style="fill:#44C5CB;" d="M448,164.031L448,164.031c-11.046,0-20-8.954-20-20v-20h40v20
		C468,155.076,459.046,164.031,448,164.031z"/>
	<path style="fill:#44C5CB;" d="M64,164.031L64,164.031c-11.046,0-20-8.954-20-20v-20h40v20C84,155.076,75.046,164.031,64,164.031z"
		/>
	<path style="fill:#44C5CB;" d="M278.862,92.03h-45.724c-25.932,0-50.801,10.301-69.138,28.638l0,0v47.043
		c0,10.117,8.202,18.319,18.319,18.319h147.362c10.117,0,18.319-8.202,18.319-18.319v-47.043l0,0
		C329.663,102.331,304.794,92.03,278.862,92.03z"/>
</g>
<polygon style="fill:#BEF7F0;" points="302.75,218.031 209.25,218.031 191.75,186.031 320.25,186.031 "/>
<path d="M502,82.03h-44.002c-0.023-5.503-4.489-9.958-9.998-9.958s-9.975,4.455-9.998,9.958H394c-5.523,0-10,4.478-10,10
	s4.477,10,10,10h44v12h-82.537c-0.129-0.146-0.254-0.295-0.393-0.434c-20.356-20.355-47.421-31.566-76.209-31.566h-45.724
	c-28.788,0-55.853,11.211-76.209,31.566c-0.139,0.139-0.263,0.288-0.393,0.434H84H74v-12h44c5.523,0,10-4.478,10-10s-4.477-10-10-10
	H73.998c-0.023-5.503-4.489-9.958-9.998-9.958s-9.975,4.455-9.998,9.958H10c-5.523,0-10,4.478-10,10s4.477,10,10,10h44v12H44
	c-5.523,0-10,4.478-10,10v20c0,16.542,13.458,30,30,30s30-13.458,30-30v-10h60v33.682c0,12.486,8.125,23.102,19.364,26.859
	l-44.613,35.347c-2.394,1.896-3.79,4.783-3.79,7.838v20.274c0,5.522,4.477,10,10,10s10-4.478,10-10v-15.439l46.273-36.663
	l9.242,16.9c1.754,3.208,5.119,5.202,8.774,5.202H246v22.003c-9.387,3.926-16,13.203-16,23.997c0,14.337,11.664,26,26,26
	s26-11.663,26-26c0-10.795-6.613-20.071-16-23.997v-22.003h36.75c3.655,0,7.02-1.994,8.774-5.202l9.026-16.505l44.41,36.184v15.523
	c0,5.522,4.477,10,10,10s10-4.478,10-10v-20.274c0-3.007-1.353-5.854-3.684-7.753l-43.241-35.232
	c11.55-3.573,19.964-14.351,19.964-27.059v-33.682h60v10c0,16.542,13.458,30,30,30s30-13.458,30-30v-20c0-5.522-4.477-10-10-10h-6
	h-4v-12h44c5.523,0,10-4.478,10-10S507.523,82.03,502,82.03z M256,280.031c-3.309,0-6-2.691-6-6c0-3.309,2.691-6,6-6
	c3.309,0,6,2.691,6,6C262,277.339,259.309,280.031,256,280.031z M278.862,102.03c22.09,0,42.935,8.105,59.138,22.909v42.772
	c0,4.587-3.732,8.318-8.319,8.318H182.319c-4.587,0-8.319-3.731-8.319-8.318v-42.772c16.203-14.804,37.048-22.909,59.138-22.909
	C233.138,102.031,278.862,102.031,278.862,102.03z M74,144.031c0,5.514-4.486,10-10,10s-10-4.486-10-10v-10h10h10V144.031z
	 M296.821,208.031h-81.643l-6.563-12h94.768L296.821,208.031z M458,144.031c0,5.514-4.486,10-10,10s-10-4.486-10-10v-10h20V144.031z
	"/>
<path d="M299.979,154.667c5.523,0,10-4.478,10-10v-0.13c0-5.522-4.477-10-10-10s-10,4.478-10,10v0.13
	C289.979,150.19,294.456,154.667,299.979,154.667z"/>
<path d="M256,154.667c5.523,0,10-4.478,10-10v-0.13c0-5.522-4.477-10-10-10s-10,4.478-10,10v0.13
	C246,150.19,250.477,154.667,256,154.667z"/>
<path d="M212.021,154.667c5.523,0,10-4.478,10-10v-0.13c0-5.522-4.477-10-10-10s-10,4.478-10,10v0.13
	C202.021,150.19,206.498,154.667,212.021,154.667z"/>
<path d="M144.96,292.708v-0.665c0-5.522-4.477-10-10-10s-10,4.478-10,10v0.665c0,5.522,4.477,10,10,10S144.96,298.23,144.96,292.708
	z"/>
<path d="M374.96,281.708c-5.523,0-10,4.478-10,10v0.335c0,5.522,4.477,10,10,10s10-4.478,10-10v-0.335
	C384.96,286.185,380.483,281.708,374.96,281.708z"/>
<path d="M309.405,317.081c3.905-3.905,3.905-10.237,0-14.143c-3.905-3.904-10.237-3.904-14.142,0
	c-10.487,10.488-24.431,16.264-39.262,16.264s-28.775-5.775-39.262-16.264c-3.906-3.903-10.237-3.903-14.142,0
	c-3.905,3.905-3.906,10.237,0,14.143c14.265,14.265,33.231,22.121,53.405,22.121S295.14,331.346,309.405,317.081z"/>
<path d="M166.955,338.581c-3.905,3.905-3.905,10.237,0,14.143c24.55,24.55,56.797,36.824,89.045,36.824s64.495-12.274,89.045-36.824
	c3.905-3.905,3.906-10.237,0-14.143c-3.906-3.904-10.237-3.904-14.142,0c-41.302,41.302-108.504,41.302-149.807,0
	C177.191,334.675,170.86,334.675,166.955,338.581z"/>
<path d="M366.544,374.221c-60.954,60.955-160.134,60.955-221.088,0c-3.905-3.904-10.237-3.904-14.143,0
	c-3.905,3.905-3.905,10.237,0,14.143C165.69,422.74,210.845,439.927,256,439.927s90.31-17.188,124.687-51.563
	c3.905-3.905,3.905-10.237,0-14.143C376.781,370.316,370.449,370.316,366.544,374.221z"/>
<g>
</g>
<g>
</g>
<g>
</g>
<g>
</g>
<g>
</g>
<g>
</g>
<g>
</g>
<g>
</g>
<g>
</g>
<g>
</g>
<g>
</g>
<g>
</g>
<g>
</g>
<g>
</g>
<g>
</g>
</svg>
